<svg id="Layer_1" data-name="Layer 1" xmlns="http://www.w3.org/2000/svg" xmlns:xlink="http://www.w3.org/1999/xlink" viewBox="0 0 1280 480"><defs><style>.cls-1{fill:none;}.cls-2{fill:url(#linear-gradient);}.cls-3{clip-path:url(#clip-path);}.cls-4{fill:#12183b;}.cls-5{fill:url(#linear-gradient-2);}.cls-6{fill:url(#linear-gradient-3);}.cls-7{fill:url(#linear-gradient-4);}.cls-8{fill:#d5dcff;}.cls-9{fill:url(#linear-gradient-5);}.cls-10{fill:url(#linear-gradient-6);}.cls-11{fill:#526db8;}.cls-12{fill:url(#linear-gradient-7);}.cls-13{fill:url(#linear-gradient-8);}.cls-14{fill:url(#linear-gradient-9);}.cls-15{fill:url(#linear-gradient-10);}.cls-16{fill:url(#linear-gradient-11);}.cls-17{fill:url(#linear-gradient-12);}.cls-18{fill:url(#linear-gradient-13);}.cls-19{fill:#24284a;}.cls-20{fill:#646ea7;}.cls-21{fill:url(#linear-gradient-14);}.cls-22{fill:url(#linear-gradient-15);}.cls-23{fill:url(#linear-gradient-16);}.cls-24{fill:#8da0f2;}.cls-25{fill:#93a2e6;}.cls-26{fill:#7381c3;}.cls-27{fill:url(#linear-gradient-17);}.cls-28{fill:url(#linear-gradient-18);}.cls-29{fill:url(#linear-gradient-19);}.cls-30{fill:#ccc;}.cls-31{fill:#d6ddff;}.cls-32{clip-path:url(#clip-path-2);}.cls-33{fill:url(#linear-gradient-21);}.cls-34{fill:url(#linear-gradient-22);}.cls-35{fill:url(#linear-gradient-23);}.cls-36{fill:url(#linear-gradient-24);}.cls-37{fill:#0e1336;}.cls-38,.cls-40{opacity:0.4;}.cls-38{fill:url(#linear-gradient-25);}.cls-39{fill:url(#linear-gradient-26);}.cls-40{fill:url(#linear-gradient-27);}.cls-41{fill:url(#linear-gradient-28);}.cls-42{fill:url(#linear-gradient-29);}.cls-43{fill:url(#linear-gradient-30);}.cls-44{fill:url(#linear-gradient-31);}.cls-45{fill:url(#linear-gradient-32);}.cls-46{fill:url(#linear-gradient-33);}.cls-47{fill:url(#linear-gradient-34);}</style><linearGradient id="linear-gradient" x1="630.63" y1="212.34" x2="614.59" y2="75.53" gradientUnits="userSpaceOnUse"><stop offset="0" stop-color="#526db8"/><stop offset="0.77" stop-color="#040b38"/></linearGradient><clipPath id="clip-path"><rect class="cls-1" width="1280" height="480"/></clipPath><linearGradient id="linear-gradient-2" x1="627.43" y1="512.96" x2="535.41" y2="-283.73" xlink:href="#linear-gradient"/><linearGradient id="linear-gradient-3" x1="1270.63" y1="-252.79" x2="1300.86" y2="66.34" gradientUnits="userSpaceOnUse"><stop offset="0.11" stop-color="#444d8a"/><stop offset="0.77" stop-color="#1b214a"/></linearGradient><linearGradient id="linear-gradient-4" x1="1133.65" y1="64.52" x2="1377.69" y2="64.52" gradientUnits="userSpaceOnUse"><stop offset="0" stop-color="#8299d9"/><stop offset="0.77" stop-color="#040b38"/></linearGradient><linearGradient id="linear-gradient-5" x1="704.13" y1="667.65" x2="618.06" y2="33.01" gradientUnits="userSpaceOnUse"><stop offset="0" stop-color="#425794"/><stop offset="0.77" stop-color="#1b214a"/></linearGradient><linearGradient id="linear-gradient-6" x1="436.82" y1="654.96" x2="371.49" y2="173.28" xlink:href="#linear-gradient-5"/><linearGradient id="linear-gradient-7" x1="263.55" y1="8.25" x2="208.42" y2="153.11" xlink:href="#linear-gradient-3"/><linearGradient id="linear-gradient-8" x1="352.92" y1="91.26" x2="115.47" y2="415.2" xlink:href="#linear-gradient-3"/><linearGradient id="linear-gradient-9" x1="886.47" y1="249.42" x2="934.62" y2="344.04" xlink:href="#linear-gradient-3"/><linearGradient id="linear-gradient-10" x1="873.07" y1="262.77" x2="1048.23" y2="441.96" xlink:href="#linear-gradient-4"/><linearGradient id="linear-gradient-11" x1="915.07" y1="18.59" x2="993.92" y2="18.59" xlink:href="#linear-gradient-3"/><linearGradient id="linear-gradient-12" x1="891.5" y1="105.4" x2="1012.44" y2="220.45" xlink:href="#linear-gradient-3"/><linearGradient id="linear-gradient-13" x1="1072.03" y1="-4.95" x2="1160.49" y2="213.4" xlink:href="#linear-gradient-3"/><linearGradient id="linear-gradient-14" x1="417.8" y1="311.39" x2="417.8" y2="311.36" xlink:href="#linear-gradient"/><linearGradient id="linear-gradient-15" x1="796.34" y1="302.48" x2="715.64" y2="363.89" gradientUnits="userSpaceOnUse"><stop offset="0.11" stop-color="#9eaaf0"/><stop offset="0.77" stop-color="#373f7d" stop-opacity="0.2"/></linearGradient><linearGradient id="linear-gradient-16" x1="684.71" y1="216.42" x2="679.86" y2="370.59" gradientUnits="userSpaceOnUse"><stop offset="0.11" stop-color="#b6bff0"/><stop offset="0.77" stop-color="#373f7d" stop-opacity="0.2"/></linearGradient><linearGradient id="linear-gradient-17" x1="734.83" y1="98.37" x2="539.19" y2="142.11" xlink:href="#linear-gradient-15"/><linearGradient id="linear-gradient-18" x1="637.08" y1="100.13" x2="580.36" y2="121.28" xlink:href="#linear-gradient-15"/><linearGradient id="linear-gradient-19" x1="765.23" y1="234.31" x2="569.58" y2="278.06" xlink:href="#linear-gradient-15"/><clipPath id="clip-path-2"><path class="cls-2" d="M714,174.13a36.18,36.18,0,1,0-30.4,41.15A36.18,36.18,0,0,0,714,174.13ZM571.74,158.37a36.18,36.18,0,1,0,41.15,30.41A36.18,36.18,0,0,0,571.74,158.37Z"/></clipPath><linearGradient id="linear-gradient-21" x1="594.15" y1="267.68" x2="575.93" y2="133.33" gradientUnits="userSpaceOnUse"><stop offset="0.11" stop-color="#526db8"/><stop offset="0.77" stop-color="#1b214a"/></linearGradient><linearGradient id="linear-gradient-22" x1="669.13" y1="254.59" x2="650.91" y2="120.24" xlink:href="#linear-gradient-21"/><linearGradient id="linear-gradient-23" x1="290.51" y1="245.79" x2="24.13" y2="539.4" xlink:href="#linear-gradient"/><linearGradient id="linear-gradient-24" x1="909.16" y1="76.12" x2="1225.18" y2="571.93" xlink:href="#linear-gradient-4"/><linearGradient id="linear-gradient-25" x1="817.9" y1="87.93" x2="852.25" y2="60.76" xlink:href="#linear-gradient-15"/><linearGradient id="linear-gradient-26" x1="807.44" y1="52.46" x2="807.64" y2="52.46" xlink:href="#linear-gradient-15"/><linearGradient id="linear-gradient-27" x1="876.13" y1="109.75" x2="868.46" y2="79.48" xlink:href="#linear-gradient-15"/><linearGradient id="linear-gradient-28" x1="1050.45" y1="90.37" x2="1231.16" y2="285.19" xlink:href="#linear-gradient-4"/><linearGradient id="linear-gradient-29" x1="216.88" y1="449.57" x2="213.05" y2="468.53" xlink:href="#linear-gradient-15"/><linearGradient id="linear-gradient-30" x1="550.22" y1="378.2" x2="546.39" y2="397.17" xlink:href="#linear-gradient-15"/><linearGradient id="linear-gradient-31" x1="934.89" y1="295.73" x2="931.05" y2="314.7" xlink:href="#linear-gradient-15"/><linearGradient id="linear-gradient-32" x1="1239.53" y1="233.65" x2="1235.69" y2="252.62" xlink:href="#linear-gradient-15"/><linearGradient id="linear-gradient-33" x1="755.07" y1="292.01" x2="811.98" y2="555.96" gradientUnits="userSpaceOnUse"><stop offset="0.23" stop-color="#1b214a"/><stop offset="0.89" stop-color="#444d8a"/></linearGradient><linearGradient id="linear-gradient-34" x1="836.11" y1="488.5" x2="879.99" y2="778.59" xlink:href="#linear-gradient-33"/></defs><g class="cls-3"><rect class="cls-4" x="-74.04" y="-15.36" width="128" height="593.92"/><rect class="cls-5" x="41.75" y="-62.6" width="1105.44" height="580.47"/><polygon class="cls-6" points="1103.52 -57.34 1259.73 384.96 1363.5 411.43 1513.36 349.97 1280.73 -131.25 1103.52 -57.34"/><path class="cls-7" d="M1323.81,22.45l-146.58,61,9.15,23.17L1334.1,46.16Zm-14.53-35.83-146.58,61,9.16,23.17,147.71-60.43Zm-14.53-35.83-146.57,61,9.15,23.17L1305-25.49ZM1280.22-85,1133.65-24,1142.8-.89l147.71-60.43Zm87.18,215-146.58,61,9.15,23.17,147.72-60.44Zm-14.53-35.83-146.58,61,9.15,23.17,147.72-60.44Zm-14.53-35.83-146.58,61,9.15,23.17L1348.63,82Z"/><polygon class="cls-4" points="1181.95 84.93 1325.11 25.37 1323.84 22.43 1177.27 83.42 1186.42 106.58 1189.93 105.15 1181.95 84.93"/><polygon class="cls-4" points="1167.42 49.1 1310.58 -10.46 1309.31 -13.39 1162.74 47.59 1171.89 70.75 1175.4 69.32 1167.42 49.1"/><polygon class="cls-4" points="1152.89 13.27 1296.05 -46.29 1294.78 -49.22 1148.21 11.76 1157.36 34.93 1160.87 33.49 1152.89 13.27"/><polygon class="cls-4" points="1225.53 192.42 1368.7 132.85 1367.43 129.92 1220.85 190.91 1230.01 214.07 1233.52 212.63 1225.53 192.42"/><polygon class="cls-4" points="1211 156.59 1354.17 97.03 1352.9 94.09 1206.33 155.08 1215.48 178.24 1218.99 176.81 1211 156.59"/><polygon class="cls-4" points="1196.47 120.76 1339.64 61.2 1338.37 58.26 1191.8 119.25 1200.95 142.41 1204.46 140.98 1196.47 120.76"/><circle class="cls-8" cx="1046.86" cy="6.6" r="2.42"/><circle class="cls-8" cx="873.72" cy="107.39" r="2.42"/><circle class="cls-8" cx="1101.49" cy="61.55" r="1.07"/><circle class="cls-8" cx="847.09" cy="36.52" r="1.07"/><circle class="cls-8" cx="908.03" cy="53.52" r="1.07"/><circle class="cls-8" cx="603.2" cy="19.86" r="1.07"/><circle class="cls-8" cx="276.63" cy="37.74" r="1.07"/><circle class="cls-8" cx="337.57" cy="54.73" r="1.07"/><circle class="cls-8" cx="473.67" cy="117.38" r="1.07"/><circle class="cls-8" cx="319.8" cy="161.11" r="1.07"/><circle class="cls-8" cx="315.1" cy="155.08" r="1.07"/><circle class="cls-8" cx="1024.93" cy="106.12" r="1.07"/><circle class="cls-8" cx="557.1" cy="96.19" r="2.42"/><circle class="cls-8" cx="354.71" cy="114.96" r="2.42"/><circle class="cls-8" cx="212.75" cy="121.85" r="2.42"/><path class="cls-4" d="M1159.74,45.52l40.12,4.25S1327.7,306,1328.15,307.38s-77.82,25.19-77.82,25.19-66.8-128.76-66.8-139.88S1159.74,45.52,1159.74,45.52Z"/><circle class="cls-8" cx="680.03" cy="201.91" r="239.53"/><path class="cls-9" d="M452.56,329.41l101.83-17.07,7.38,44.53,25-2.37-3.26-24.27,29.13-6.45,2.76,21L642.82,356,627.4,371.78l19.88-.12-9.8-71.28,88.34-15.93L740.38,319l33.93-13.73L786.94,297l10.51,33.82,22,3.14-4.77-30.88,4.77-7.51-3.82-37.81-1.91-24.48,11.94,25.55,11.94,26.76,8.59,2.34v11.94l9.55,15.89H870l11.29-3.46,13.06,3.46,9.55,34.81-6.2,31.14s3,53.71-.36,53.79S444,539.8,444,539.8Z"/><path class="cls-10" d="M460.32,373.78l-46.61,7.8L417.79,402H403.11l-9.68-55.42h-30l-16.14,13.88S355,504.24,355,506.06s33.11,17.55,34.57,17.25,58.87,6.05,60.38,6.05,20.38-34.5,20.38-34.5Z"/><rect class="cls-11" x="474.42" y="347.28" width="7.13" height="15.04" transform="translate(-44.56 69.67) rotate(-7.97)"/><rect class="cls-11" x="501.12" y="361.65" width="7.13" height="15.04" transform="translate(-46.3 73.51) rotate(-7.97)"/><rect class="cls-11" x="503.25" y="396.79" width="7.13" height="15.04" transform="translate(-51.15 74.15) rotate(-7.97)"/><rect class="cls-11" x="605.46" y="425.92" width="7.13" height="15.04" transform="matrix(0.99, -0.14, 0.14, 0.99, -54.2, 88.6)"/><rect class="cls-11" x="685.25" y="323.25" width="7.13" height="15.04" transform="translate(-39.2 98.66) rotate(-7.97)"/><rect class="cls-11" x="712.49" y="340.31" width="7.13" height="15.04" transform="translate(-41.3 102.6) rotate(-7.97)"/><rect class="cls-11" x="667.84" y="380.11" width="7.13" height="15.04" transform="translate(-47.25 96.8) rotate(-7.97)"/><rect class="cls-11" x="605.46" y="370.43" width="7.13" height="15.04" transform="matrix(0.99, -0.14, 0.14, 0.99, -46.51, 88.06)"/><rect class="cls-11" x="578.19" y="381.01" width="7.13" height="15.04" transform="matrix(0.99, -0.14, 0.14, 0.99, -48.24, 84.38)"/><rect class="cls-11" x="539.44" y="438.79" width="7.13" height="15.04" transform="matrix(0.99, -0.14, 0.14, 0.99, -56.62, 79.57)"/><rect class="cls-11" x="792.53" y="377.58" width="7.13" height="15.04" transform="matrix(0.99, -0.14, 0.14, 0.99, -45.69, 114.06)"/><rect class="cls-11" x="847.98" y="346.25" width="7.13" height="15.04" transform="translate(-40.81 121.44) rotate(-7.97)"/><rect class="cls-11" x="833.69" y="348.25" width="7.13" height="15.04" transform="translate(-41.23 119.48) rotate(-7.97)"/><rect class="cls-11" x="772.32" y="317.56" width="7.13" height="15.04" transform="matrix(0.99, -0.14, 0.14, 0.99, -37.57, 110.68)"/><rect class="cls-11" x="754.88" y="321.35" width="7.13" height="15.04" transform="matrix(0.99, -0.14, 0.14, 0.99, -38.26, 108.3)"/><rect class="cls-11" x="709.61" y="319.7" width="7.13" height="15.04" transform="translate(-38.47 102) rotate(-7.97)"/><rect class="cls-11" x="532.08" y="337.2" width="7.13" height="15.04" transform="translate(-42.61 77.57) rotate(-7.97)"/><polygon class="cls-4" points="1026.12 -23.55 1046.82 30.56 1055.13 26.98 1167.86 324.47 1065.59 350.97 1017.44 296.81 961.45 -30.87 1026.12 -23.55"/><polygon class="cls-12" points="292.39 87.69 326.24 102.54 351.28 408.84 35.84 422.28 33.35 -17.99 45.93 -35.67 292.39 87.69"/><polygon class="cls-13" points="321.14 168.06 360.46 185.3 389.55 541.1 23.14 556.71 20.24 45.3 35.97 41.37 321.14 168.06"/><polygon class="cls-14" points="867.29 264.9 892.3 394.88 975.91 361.29 942.69 225.9 867.29 264.9"/><path class="cls-15" d="M939.64,247.55,876,276.31l2.34,9.84L942.69,261ZM950.87,295l-65.22,23.86,2.35,9.83,65.92-20.23Zm-5.62-23.72-64.43,26.3,2.35,9.84,65.14-22.68Zm11.23,47.44-66,21.41,2.34,9.84,66.72-17.79Zm5.62,23.72-66.79,19,2.34,9.84,67.5-15.34Z"/><polygon class="cls-4" points="887.06 319.42 951.1 295.99 950.87 294.95 885.65 318.81 888 328.65 889.18 328.29 887.06 319.42"/><polygon class="cls-4" points="882.24 298.14 945.5 272.31 945.25 271.23 880.83 297.54 883.17 307.38 884.34 306.97 882.24 298.14"/><polygon class="cls-4" points="877.41 276.87 939.89 248.64 939.64 247.51 876 276.27 878.34 286.1 879.5 285.65 877.41 276.87"/><polygon class="cls-4" points="891.89 340.69 956.71 319.67 956.48 318.68 890.48 340.09 892.82 349.92 894.02 349.61 891.89 340.69"/><polygon class="cls-4" points="896.72 361.96 962.31 343.35 962.1 342.4 895.3 361.36 897.65 371.2 898.85 370.92 896.72 361.96"/><polygon class="cls-4" points="942.69 225.9 965.46 230.31 1004.93 363.04 971.55 363.04 942.69 225.9"/><polygon class="cls-16" points="936.81 68.04 915.07 -8.31 961.45 -30.87 993.92 64.31 936.81 68.04"/><polygon class="cls-17" points="921.6 73.14 998.31 35.55 1097.59 356.11 990.84 371.37 921.6 73.14"/><path class="cls-18" d="M1050.56,92l109.18-46.47,125.41,277.7S1150.78,359.06,1142.94,363,1050.56,92,1050.56,92Z"/><path class="cls-19" d="M590.19,342s-18.17,27.32-37.7,16.82c-20.39-10.95-54.91-24.19-65-17s-10,41.54-30.45,40.78c-2.89,6-2.89,16.56-2.89,16.56S476,396.53,488,364.09c15.51-41.69,58.88-.45,68,4.54,14.13,7.77,26.79-8.34,26.79-8.34Z"/><path class="cls-20" d="M583.85,349.77c-7,7.15-18.86,15.74-31.26,9.07-20.39-10.95-54.9-24.19-65-17-4.06,2.9-6.46,10.19-9.22,17.81,2.68-6,6.55-13.11,10.2-14a22.12,22.12,0,0,1,12.31.6l2.12-.4c13.62-7.13,42.53,12.86,42.53,12.86,8.72,6.32,19,10.4,26.13,6s12.19-14.93,12.19-14.93Z"/><path class="cls-21" d="M417.79,311.39l0,0,0,0Z"/><path class="cls-19" d="M600.87,284.3S576.54,319.57,579,341.2s7.78,47.75-.17,65.86c-21.32,48.55-46,36.29-46,36.29s4.33,9.85,11.06,12.26,41.86,7.21,57,0,59-16.29,64.46-27.34,5.35-36.95,10.46-44.55,10.47-58.3,7.4-73.69c0,13.7-7.63,44.13-13.07,62.88s-3.89,13.36.44,23.45,11.17,28.84,10.81,31.73,98.79-28.48,98.79-28.48-23.44-36.78-10.1-46.15-1.45-69.76-6.13-88.85-18-24.49-18-24.49l-75.7,13L603.5,284.3Z"/><path class="cls-22" d="M725.73,295.68s22.17-25.62,30.46-16.05-.72,15.37-4.33,20.3-53,79.93-53,79.93,63-53.65,67.78-59.42-3.24,13.27-3.24,13.27l-13.61,20.55-26.27,47.22,35.91-31.36-38.71,45,60.31-14s-21.29-38.77-12.83-45.82c6.56-5.47,11.42-11.79,8.54-38.11s-11.36-64.38-18.57-70.28S725.73,295.68,725.73,295.68Z"/><path class="cls-19" d="M683.55,215.28s-27.15,6.62-27.11,6.87c-8.42.21-68.88,16.16-101.62,78,35-8.2,84,.89,105.83,24.94,21.59-35.26,115.09-95.18,150.91-97.62-19.71-19.71-42.59-26.37-63.52-27C713.05,199.43,683.55,215.28,683.55,215.28Z"/><path class="cls-23" d="M652.64,229.29c0-.25,27.1-6.86,27.1-6.86s31.9-20.3,66.89-19.27c18.83.56,57.71,13.52,19.15,40.52,28.4-14.33,43.17-16,46-16.23-19.71-19.7-42.44-26.45-63.37-27.06-35-1-65.08,14.87-65.08,14.87s-27.15,6.62-27.11,6.87c-8.42.21-68.88,16.16-101.62,78l.49-.11C588.56,244.19,644.56,229.49,652.64,229.29Z"/><path class="cls-24" d="M580.09,269.55c38.33-24.61,86.29-26.3,92.41-26.46l-.07-.42A130,130,0,0,1,683.64,235C676.78,235.17,619.51,237.23,580.09,269.55Z"/><path class="cls-19" d="M538.07,181.21l-23.19-15a9.11,9.11,0,0,1-2.6-12.62h0a9.11,9.11,0,0,1,12.61-2.6l22.85,14.78A36.78,36.78,0,0,0,538.07,181.21Z"/><path class="cls-25" d="M546.21,165.73s-22.5-12.16-23.29-12.5c-1.4-.61-4.8.09-6,1.81s1.26-.18,3.47,0,21.49,17.11,21.49,17.11Z"/><path class="cls-19" d="M767.09,141.09C761.15,112.62,727.84,77.25,716,69s-23.66-52.35-28.65-51.19C682.06,19,667.93,70.54,674,106.48s-9.51,49.21-12.36,48.94-12.44-.19-12.44-.19,6.62.87,4,2-14.82-8.93-19.59-45.06.34-85-5.11-84.61c-5.1.36-81.86,119.21-79.18,148.17,2.13,22.92-14.92,29.32,5.74,35.55s27.1,8.08,26.47,13.28-12.73,9.13-11.58,21.47,7,31.38,43.07,41,47.78,12.12,57.6,10.64,20.3-7.29,51.93-27.1,29.6-43.84,27.07-56-13.21-8.23-15.34-13-9.09.12,8.82-11.9S771.8,163.63,767.09,141.09Z"/><path class="cls-26" d="M576.09,237.81c.25-2-.57-3.51-2.84-5-2.67,3.05-4.94,7-4.41,12.61,0,.38.08.77.12,1.16C572.09,243,575.76,240.61,576.09,237.81Z"/><path class="cls-27" d="M686.49,24c5-1.17,16.06,39.68,27.87,48s79.86,73.9,31.91,115.55c24.34-17,23.16-35.75,20.83-47-6-28.47-39.26-63.85-51.07-72.11S692.37,16.1,687.38,17.27c-2.08.48-5.5,8.64-8.54,20.55C680.45,33.79,685.38,24.27,686.49,24Z"/><path class="cls-28" d="M624.27,40.81c5.44-.38.34,48.48,5.11,84.61s16.94,46.15,19.58,45.06-4-2-4-2,9.6-.07,12.45.19c2,.19,10.34-6.38,13-22.87-3.34,6.45-7.32,9.18-8.63,9.06-2.84-.26-12.44-.19-12.44-.19s6.62.86,4,1.95-14.82-8.92-19.59-45,.34-85-5.11-84.61c-4.69.33-69.77,100.55-78.31,139.36C567.29,121.72,620.06,41.1,624.27,40.81Z"/><path class="cls-29" d="M749.83,214.43c-1.8-8.65-9.25-14.49-13.29-15.81-17.31-7.62-39.76,17.5-37.68,22.2s47.41-11,49.94,1.13c.39,1.88.78,10.57-.9,14.9-3.44,9.64-12.35,17.94-27.61,27.45-32,19.92-42.6,25.77-52.51,27.28s-21.75-.93-58.12-10.45c-16.91-4.43-27.22-10.92-33.52-17.83,4.74,9.94,15.25,20.43,38.79,26.8,35.61,9.64,47.19,12.11,56.89,10.64s18.76-9.47,50-29.28c24.13-15.31,28.6-31.25,29.26-43.86A56,56,0,0,0,749.83,214.43Z"/><path class="cls-19" d="M715,149.53l17.33-20.64a8.89,8.89,0,0,0-1.19-12.52h0a8.89,8.89,0,0,0-12.51,1.2L701.56,137.9A36,36,0,0,1,715,149.53Z"/><path class="cls-25" d="M728.52,173.6c-.16-1-.38-2-.6-3a44.73,44.73,0,0,0-23.62-30,43.83,43.83,0,0,0-26.14-4.12A44.44,44.44,0,0,0,641,187.11l0,.14a44.44,44.44,0,0,0,50.24,37.39l.16,0h0A44.43,44.43,0,0,0,728.6,174a.28.28,0,0,0,0-.09C728.58,173.83,728.54,173.71,728.52,173.6Z"/><path class="cls-19" d="M722.15,171.79c-.16-1-.38-2-.6-3a44.75,44.75,0,0,0-23.62-30,43.89,43.89,0,0,0-26.13-4.13,44.45,44.45,0,0,0-37.18,50.68l0,.15a44.44,44.44,0,0,0,50.24,37.39l.16,0h0a44.43,44.43,0,0,0,37.18-50.59.28.28,0,0,0,0-.09C722.21,172,722.17,171.91,722.15,171.79Z"/><path class="cls-30" d="M552.79,205c-.14-1-.24-2-.3-3C552.56,202.92,552.64,203.93,552.79,205Z"/><path class="cls-25" d="M538.91,201.85c-.15-1-.23-2-.31-3a44.73,44.73,0,0,1,13.75-35.65,43.9,43.9,0,0,1,23.77-11.63A44.45,44.45,0,0,1,626.55,189a.76.76,0,0,0,0,.15,44.44,44.44,0,0,1-37,50.5l-.16,0h0A44.44,44.44,0,0,1,539,202.29s0-.06,0-.09S538.92,202,538.91,201.85Z"/><path class="cls-19" d="M533.26,200.38c-.15-1-.23-2-.3-3a44.67,44.67,0,0,1,13.74-35.66,43.9,43.9,0,0,1,23.77-11.63,44.46,44.46,0,0,1,50.43,37.52.76.76,0,0,1,0,.15,44.44,44.44,0,0,1-37,50.5l-.16,0h0a44.44,44.44,0,0,1-50.41-37.43.29.29,0,0,0,0-.09C533.28,200.62,533.28,200.5,533.26,200.38Z"/><circle class="cls-25" cx="676.3" cy="181.13" r="36.18"/><circle class="cls-25" cx="574.93" cy="195.62" r="36.18"/><path class="cls-31" d="M675.78,236.92s1.08,10.25.61,12.56c3.52-1.37,9.38-6.23,10.46-11.31C682.67,236.42,675.78,236.92,675.78,236.92Z"/><path class="cls-19" d="M629.33,246.61c-2.32-1.13,1.4-5,10.72-6.42,8.71-1.31,12.53,1,12.24,2.3-.52,2.36-7.55.63-11.95,1.29S631.65,247.74,629.33,246.61Z"/><path class="cls-25" d="M714.81,148.36s16.23-19.77,16.71-20.48c.87-1.26.83-4.74-.62-6.25s-.07,1.26-.65,3.41-20.9,17.82-20.9,17.82Z"/><path class="cls-19" d="M708.64,233.17c-4.44,5.4-13.13,4.92-22.5,3.64-.64-.81-2.78-1.5-4.6-1.76a15,15,0,0,0-5.36.33c-1.57-.2.94,3.33-.58,3.2-13.81-1.13-34.19,1-34.19,1S629.32,240,616,248c-11.88,7.19-30.66,10.88-39.51,5-2.74-1.81-5.16-2.46-7-5.85-.69-1.25-.43-12.24,5.5-5.89,3.79,4.07,5.7,9.63,11.17,9.06,20-2.1,27.68-13.86,33.67-24.44,2.21-3.9,6-7,7.65-10.3,2-4.13,2.54-10.24,5.22-10.65,4.15-.63,4.76,4.55,10.41,9.37,2.11,1.8,5.14,2.62,8.06,4.52,10.09,6.56,23.75,14.14,44.48,14.63,5.51.13,6.67-2.39,9.5-7.11,3-5,9.3-3.91,7.87.4C711.76,230.45,710.72,230.64,708.64,233.17Z"/><path class="cls-19" d="M632.08,209.2c-.11-.76-1-.92-1.26-.23-.93,2.38-1.35,7.56-3.39,10-2.66,3.15-5.9,7-4,10.34s5.28.31,7.88-2.56c1.12-1.23,1.83-2,2.28-2.38a2.05,2.05,0,0,0,.55-1.79Z"/><path class="cls-19" d="M634.58,208.35c-.11-.76.67-1.17,1.13-.59,1.6,2,3.52,6.83,6.18,8.55,3.47,2.23,7.71,5,6.92,8.7s-5,1.84-8.29-.13c-1.43-.85-2.32-1.33-2.87-1.6a2.05,2.05,0,0,1-1.06-1.56Z"/><path class="cls-19" d="M709,235.67c-4.43,5.4-13.13,4.91-22.5,3.63-.64-.81-2.77-1.49-4.6-1.76a15,15,0,0,0-5.35.34c-1.57-.21-3.21.09-4.64-.51-11.93-4.93-30.59-2.1-30.59-2.1s-16.18,2.34-28,11c-11.29,8.23-27.59,15.12-36.43,9.26-2.74-1.81-5.06-4.89-7-8.29-.69-1.24.69-2.48,1.55-1.39,3.44,4.4,7.69,5.84,13.19,6.08,15,.66,30.85-15.24,56.37-19.07s46,1.82,59.48,1.66c5.5-.06,8.82-4.47,10.82-9.68.5-1.3,2.18-.52,1.89.87C712.41,229.5,711.1,233.13,709,235.67Z"/><path class="cls-2" d="M714,174.13a36.18,36.18,0,1,0-30.4,41.15A36.18,36.18,0,0,0,714,174.13ZM571.74,158.37a36.18,36.18,0,1,0,41.15,30.41A36.18,36.18,0,0,0,571.74,158.37Z"/><g class="cls-32"><path class="cls-33" d="M523.37,201.85l28.9-4.84,2.1,12.64,7.1-.67-.93-6.89,8.27-1.83.78,6,7.78,3.19L573,213.88l5.64,0-2.78-20.24,25.08-4.52,4.13,9.81,9.63-3.9,3.59-2.33,3,9.59,6.23.9-1.35-8.77,1.35-2.13-1.08-10.73-.54-6.95,3.39,7.25,3.38,7.59,2.44.67v3.39l2.72,4.51h4.06l3.21-1,3.71,1,2.71,9.88-1.77,8.84S629,227.32,628.05,227.34s-102.77,15.14-102.77,15.14Z"/><path class="cls-34" d="M598.35,188.76l28.91-4.84,2.09,12.64,7.1-.67-.93-6.89,8.27-1.83.79,6,7.78,3.2L648,200.79l5.64,0-2.78-20.23L675.92,176l4.13,9.81,9.63-3.89,3.59-2.34,3,9.6,6.24.89-1.36-8.77,1.36-2.13-1.09-10.73-.54-6.95,3.39,7.25,3.39,7.6,2.44.66v3.39l2.71,4.51h4.07l3.2-1,3.71,1,2.71,9.88-1.76,8.84S704,214.23,703,214.26,600.26,229.4,600.26,229.4Z"/></g><polygon class="cls-4" points="91.88 135.94 86.43 141.91 104.33 618.53 162.53 610.41 151.33 159.48 91.88 135.94"/><polygon class="cls-4" points="281.31 210.95 275.87 215.3 293.34 531.38 338.42 525.09 324.97 228.24 281.31 210.95"/><polygon class="cls-4" points="197.19 177.64 191.74 181.98 206.71 546.85 251.79 540.56 243.23 195.87 197.19 177.64"/><path class="cls-35" d="M86.43,140.28,98.88,622.87l58.2-8.12-11.2-450.93Zm233.09,92.3L275.87,215.3l12,320.42L333,529.43ZM191.74,182l9.52,369.22,45.08-6.3-8.56-344.68Z"/><path class="cls-36" d="M998.69,133.59l14.53-6.16-10.33-39.58-14,6Zm10.49,42.48,15.07-6.39-10.33-39.58-14.57,6.17Zm-7-90.89-9-34.61-13.6,5.64,8.63,34.91Zm-28.52,59L988.19,138,978,98.41l-14,6ZM1030.18,261l16.13-6.84L1036,214.59l-15.63,6.63Zm-10.5-42.47,15.6-6.61L1025,172.34l-15.1,6.41ZM977.28,95.75l-8.75-33.92L955.06,68l8.23,33.72ZM1010,222.64,999.79,183l-15.09,6.4,9.72,39.84Zm30.67,80.85,16.66-7.07L1047,256.84l-16.16,6.85ZM974.32,146.88,984,186.73l15.06-6.39-10.22-39.63Zm46.61,118.06-10.23-39.63-15.63,6.62,9.72,39.85Zm10.91,42.29-10.23-39.63-16.16,6.86,9.72,39.84Zm-5.64,52.28,4.23,17.36,18.1-4.91-5.09-19.76Zm-17.61-39.46-16.53,7,9.82,39.8,17.15-7.27Zm-65.17-247L930.81,79,939,112l13.25-5.62Zm89.11,236.85L1015.82,317l9.72,39.85,17.21-7.3Zm25.5-10.81-16.69,7.07,9.83,39.8,17.2-7.29Zm11,42.24-17.22,7.31,4.42,17.92,18.1-4.91Zm-66.51,28.21,4.2,17,18.1-4.91-5.12-19.4ZM952.92,109l-13.29,5.63,9.82,39.8,13.9-5.89Zm11.13,42.2-13.94,5.91,9.83,39.8,14.55-6.17Zm33.41,126.61-15.89,6.73,9.83,39.8,16.49-7Zm-11.14-42.21-15.23,6.46,9.82,39.8,15.85-6.72Zm-11.13-42.2-14.59,6.19,9.83,39.79L985.62,233Z"/><polygon class="cls-4" points="1006.63 271 997.32 232.84 1011.14 226.99 1010.7 225.31 995.07 231.93 1004.79 271.78 1006.63 271"/><polygon class="cls-4" points="1017.01 313.52 1007.7 275.37 1022.05 269.28 1021.61 267.6 1005.45 274.46 1015.17 314.3 1017.01 313.52"/><polygon class="cls-4" points="1024.95 172.34 1009.85 178.75 1019.68 218.54 1021.52 217.76 1012.1 179.65 1025.38 174.02 1024.95 172.34"/><polygon class="cls-4" points="1033.09 264.6 1047.44 258.52 1047 256.84 1030.84 263.69 1040.68 303.49 1042.51 302.71 1033.09 264.6"/><polygon class="cls-4" points="1013.92 130.09 999.35 136.27 1009.18 176.07 1011.02 175.29 1001.6 137.18 1014.36 131.77 1013.92 130.09"/><polygon class="cls-4" points="1018.07 317.89 1032.96 311.58 1032.53 309.9 1015.82 316.98 1025.54 356.83 1027.38 356.05 1018.07 317.89"/><polygon class="cls-4" points="984.04 186.73 985.88 185.95 976.57 147.79 989.31 142.39 988.88 140.71 974.32 146.88 984.04 186.73"/><polygon class="cls-4" points="998.69 133.59 1000.52 132.81 991.1 94.71 1003.33 89.52 1002.89 87.85 988.85 93.8 998.69 133.59"/><polygon class="cls-4" points="973.67 144.2 975.51 143.42 966.2 105.27 978.4 100.09 977.97 98.41 963.95 104.36 973.67 144.2"/><polygon class="cls-4" points="990.03 90.34 981.82 57.12 993.59 52.23 993.16 50.57 979.56 56.21 988.19 91.12 990.03 90.34"/><polygon class="cls-4" points="1035.97 214.59 1020.34 221.22 1030.18 261.01 1032.01 260.24 1022.6 222.13 1036.41 216.27 1035.97 214.59"/><polygon class="cls-4" points="996.26 228.47 986.95 190.32 1000.22 184.69 999.79 183.01 984.7 189.41 994.42 229.25 996.26 228.47"/><polygon class="cls-4" points="983.83 285.49 997.9 279.52 997.46 277.85 981.57 284.58 991.4 324.38 993.23 323.6 983.83 285.49"/><polygon class="cls-4" points="965.13 100.9 957.32 68.87 968.98 63.56 968.53 61.83 955.07 67.96 963.29 101.68 965.13 100.9"/><polygon class="cls-4" points="1028.45 360.42 1043.87 353.88 1043.44 352.2 1026.2 359.51 1030.43 376.87 1032.34 376.36 1028.45 360.42"/><polygon class="cls-4" points="1054.09 349.55 1069.5 343.01 1069.06 341.33 1051.84 348.64 1056.26 366.56 1058.16 366.04 1054.09 349.55"/><polygon class="cls-4" points="1043.59 307.07 1058.47 300.76 1058.03 299.09 1041.34 306.17 1051.17 345.96 1053.01 345.18 1043.59 307.07"/><polygon class="cls-4" points="994.31 327.97 1009.04 321.72 1008.59 320.05 992.06 327.06 1001.88 366.86 1003.72 366.08 994.31 327.97"/><polygon class="cls-4" points="1004.8 370.44 1020.17 363.93 1019.73 362.25 1002.55 369.54 1006.75 386.56 1008.65 386.04 1004.8 370.44"/><polygon class="cls-4" points="941.88 115.58 953.36 110.71 952.92 109.03 939.63 114.67 949.45 154.47 951.29 153.69 941.88 115.58"/><polygon class="cls-4" points="933.06 79.86 943.88 74.8 943.42 73.05 930.81 78.95 938.97 111.99 940.8 111.21 933.06 79.86"/><polygon class="cls-4" points="973.34 243.01 986.77 237.32 986.32 235.64 971.09 242.1 980.91 281.9 982.75 281.13 973.34 243.01"/><polygon class="cls-4" points="952.37 158.06 964.5 152.91 964.05 151.24 950.11 157.15 959.94 196.95 961.77 196.17 952.37 158.06"/><polygon class="cls-4" points="962.85 200.53 975.63 195.12 975.19 193.44 960.6 199.63 970.43 239.43 972.26 238.65 962.85 200.53"/><path class="cls-37" d="M192.32,81.17S177.77,69.82,176.6,56.55c-2.12-24,14.83-35.71,5.55-43.18s1.21-8.88,4.84-5.45,7.83,11.3,5.33,16.75S184,52.11,187,57.56s5.65,12.11,9.48,11.91"/><path class="cls-25" d="M187,57.56c-3-5.45,2.82-27.44,5.33-32.89S190.62,11.35,187,7.92c-2.18-2-6.81-2.37-8.18-.69A7.71,7.71,0,0,1,184.16,9c3.64,3.43,7.83,11.3,5.33,16.75s-8.35,27.44-5.33,32.89,5.65,12.11,9.49,11.91l-3.21,9c1.14,1,1.88,1.6,1.88,1.6l4.15-11.7C192.64,69.67,190,63,187,57.56Z"/><path class="cls-19" d="M860.85,92.77s12.49-3.23,15.57-.88,2.06,2.79,2.06,2.79,5.58-1.89,9-1.83,9.4-.62,11.17-1.82,5.28-4.28,5.87-4.28,1.91-2.79,2.64-1.62,2.94-2,3.82-.29,2.35-1,2.8.44a12.6,12.6,0,0,1,0,4.21s-2.21,3.43-8.08,4-14,.59-16.31,1.91-10,3.82-10.43,4.7-.22,4.5-2.81,5.77-21.76,7.05-24.67,6.61-3.37,2.42-3.81,2.75-2,3-3,3.8a10,10,0,0,1-3.47,1.33s-1.38-1.16-.55-2a33.7,33.7,0,0,1,2.92-2.86c.44-.22,1.76-1.65,1-1.76s-1.71.71-3.25,1-7.88-5.68-8.65-7.33,3.58-2.48,3.8-2.26,8.87-1,9-1,2-.55,2-.55-1.38-2.64-3-3.58-4.68-.5-8-2.64-7.32-6.17-6.72-6.72-2.2-3.09-4-5-3.2-2.59-3.86-3.91-3.58-4.07-4.08-4.63-3.41-3.14-2.75-3.91-4.52-2.81-2.15-4.4c-1.76-2.92-3.14-5-2.26-5.46-1.93-.88-2.48-5.17-1.37-4.46-1.66-3-.83-3-.83-3l.77.27s-2.53-4.24-1.6-4A18.74,18.74,0,0,1,810,53s-1-3.2,0-2.26,1.76,1.65,1.76,1.65l.72-1.82L813.81,52s7.77,7.55,10.08,8.81,16.64,11.63,18.68,12.89,3.47,2.87,3.58,4.63,9.36,14.54,11.12,14.82A8.78,8.78,0,0,0,860.85,92.77Z"/><ellipse class="cls-25" cx="870.62" cy="97.56" rx="1.03" ry="1.1"/><ellipse class="cls-25" cx="877.17" cy="97.22" rx="1.03" ry="1.1"/><path class="cls-19" d="M866.49,94.39s-2.63-6-2-7.21,3.83,3,3.94,4.94"/><path class="cls-19" d="M877.55,95.15s2.62-6.06,2-7.22-3.84,3-3.94,4.95"/><path class="cls-38" d="M850.49,98.24S844.13,95,840.35,93s-2.42-5.22,0-7.19-3.48-3-8.93-5.83-1.29-2.72,1.66-4.23-8-5.53-12.71-7.74-4.24-4.67-3.71-5.13-3.48-1.28-6.66-4.08a7.41,7.41,0,0,1-1.71-2.22,9,9,0,0,0,1,2.28c-1.1-.71-.55,3.58,1.38,4.46-.89.45.49,2.54,2.25,5.46-2.36,1.6,2.81,3.63,2.15,4.4s2.26,3.37,2.76,3.92,3.41,3.3,4.07,4.62,2.1,2,3.86,3.91,4.57,4.47,4,5,3.42,4.57,6.72,6.72,6.34,1.7,8,2.64,3,3.58,3,3.58l.46-3.7Z"/><path class="cls-39" d="M807.56,52.82a4.88,4.88,0,0,1,.08-.73l-.2.2A1.67,1.67,0,0,0,807.56,52.82Z"/><path class="cls-40" d="M905.64,93.5c5.88-.58,8.08-4,8.08-4s0-.2.07-.51c-1,3.07-8.48,4.12-9.58,4.28a56.87,56.87,0,0,1-7.34.41c-1.4-.15-5.75.8-7.34.72s-6.13,3-7.53,3.52a19.68,19.68,0,0,0-2.84,1.51,12.65,12.65,0,0,0-2.46,4.35c-.9,2.73-5.86.8-9.61,2.09s-10.25,1.85-11.91.83-1.74-1.1-2.27-.83-3.14,4.5-3.41,4.23a6,6,0,0,0-2.27-1.13c-1-.23-2.35,2.15-2.76,2.34s-3,1.56-4.35,1.21-5.53-3.7-6.89-4.84a1.72,1.72,0,0,1-.64-.88.83.83,0,0,0,0,.63c.77,1.65,7.11,7.6,8.65,7.33s2.48-1.1,3.25-1-.55,1.54-1,1.76a33.7,33.7,0,0,0-2.92,2.86c-.83.83.55,2,.55,2a10,10,0,0,0,3.47-1.33c.93-.82,2.53-3.47,3-3.8s.88-3.19,3.8-2.75,22.09-5.34,24.68-6.61,2.37-4.89,2.81-5.77,8.08-3.38,10.43-4.7S899.77,94.09,905.64,93.5Z"/><path class="cls-41" d="M1068.37,98.32l81,236,26-4.9-89-238ZM1102.56,85l81,236,26-4.91-89-238Zm51.56-20.21-17.91,6.89,82.91,234.88,26-4.9Z"/><polygon class="cls-4" points="1071.12 99.38 1086.96 93.28 1086.27 91.43 1068.37 98.32 1149.36 334.35 1151.6 333.92 1071.12 99.38"/><polygon class="cls-4" points="1105.31 86.06 1121.16 79.96 1120.47 78.11 1102.56 85 1183.56 321.03 1185.8 320.6 1105.31 86.06"/><polygon class="cls-4" points="1138.96 72.74 1154.83 66.64 1154.12 64.79 1136.21 71.69 1219.12 306.56 1221.35 306.14 1138.96 72.74"/><path class="cls-37" d="M271,110.11l29.17,2.63a3.12,3.12,0,0,1,2.71,2.59c.88,4.51,2.37,13.8-.24,13.8s-4.6-2.57-5.51-3.93a3.49,3.49,0,0,1-.58-1.67h0c-.17-2,1-5.54-.8-5L280.88,124a2.79,2.79,0,0,1-2.47-.48l-9.86-7.39c-2.45-1.84-1.26-6,1.71-6H271Z"/><path class="cls-25" d="M302.77,115.33a3.12,3.12,0,0,0-2.71-2.59l-29.17-2.63h-.72a2.81,2.81,0,0,0-1.94.76h.63L298,113.5c1.33.11.38,3.48.65,4.9.72,3.67,3.9,8.19,2.89,10.61a4.34,4.34,0,0,0,.95.12C305.14,129.13,303.65,119.84,302.77,115.33Z"/><path class="cls-37" d="M196.94,112.5S175.68,70.59,202,62.42c17.53-5.44,31.16,2,52.65,16.7,2.89,2,26.26-7.37,28.71-5.46,6.72,5.26,11.43,16.8,11,20.43-2,17.25-21.43,16-18.55,24.36C282,136.37,290.11,154,290.11,154l-11.65-4.91s-7.62-16.87-13.07-23.23-5.45-14.23-6.36-16.34-.89-5.22-11.48-3.08-5.15,15.72-5.15,15.72l9.39,14.7Z"/><path class="cls-25" d="M254.69,79.12c-12.88-8.82-23.29-15.2-33.08-17.49,9.27,2.64,5.81,8.54,18,16.89C239.92,78.74,243.06,76.76,254.69,79.12Z"/><path class="cls-25" d="M294.42,94.09c.41-3.63-4.3-15.17-11-20.43a2.63,2.63,0,0,0-1.65-.24c6.55,5.36,11.12,16.59,10.7,20.16-2,17.26-25.5,14.36-22.62,22.71,5.63,16.35,16.92,34.13,18.13,36.82l2.15.9s-8.07-17.64-14.24-35.56C273,110.11,292.43,111.34,294.42,94.09Z"/><path class="cls-25" d="M247.55,106.45a24.29,24.29,0,0,1,7.22-.65c-1.47-.7-4.11-.88-9.18.14-10.6,2.13-19.52,19.88-19.52,19.88l23.43,10,2.29,1-9.39-14.7S237,108.58,247.55,106.45Z"/><path class="cls-37" d="M275,79s5.86-13.68,7.17-14.28a12.28,12.28,0,0,0,2.62-1.82s2.12-9.38,2.62-9.48,6,6.76,6,6.76,11.9,3.33,15,7.57a32.43,32.43,0,0,1,9.36-1.17l-5.93,9s2,10.19-10.59,13.31-12.48,17-15.71,13.93S275,79,275,79Z"/><path class="cls-25" d="M292,60.19s11.9,3.33,15,7.57c.51-.14,1-.25,1.48-.36-3.5-4.07-14.75-7.21-14.75-7.21s-5.45-6.86-6-6.76c-.11,0-.29.46-.51,1.14C289,56.5,292,60.19,292,60.19Z"/><path class="cls-25" d="M318.12,66.59s-.65,0-1.77,0l-5.93,9s2,10.19-10.59,13.32c-10,2.47-21.64,11.92-23.65,14.12,3.62,1.11,13.76-.17,13.78-.15,3.22,3-1-10.85,11.63-14s10.6-13.32,10.6-13.32Z"/><path class="cls-8" d="M291.65,68.71s3.54.13,4.13,1.05a9.42,9.42,0,0,1,.92,2.62,3.23,3.23,0,0,1-2.95.39C291.85,72.25,291.65,68.71,291.65,68.71Z"/><path class="cls-8" d="M308.43,75.42s-2.35-1.91-3.25-1.66a8.1,8.1,0,0,0-2.06,1.17,2.76,2.76,0,0,0,1.67,1.92C306.31,77.58,308.43,75.42,308.43,75.42Z"/><polygon class="cls-4" points="35.38 495.41 1452.14 196.21 1454.67 207.97 23.33 510.8 35.38 495.41"/><polygon class="cls-20" points="37.55 497.92 1454.31 198.71 1456.2 207.5 1456.84 207.36 1454.31 195.6 37.55 494.81 25.5 510.19 28.43 509.56 37.55 497.92"/><path class="cls-4" d="M221.05,452.41l-21,5s-4.57,4.25-2.42,9.69a16.14,16.14,0,0,0,5.85,7.67l28.25-6.26s-.69-16.75-3.27-16.95A36.36,36.36,0,0,0,221.05,452.41Z"/><path class="cls-42" d="M199.58,458s26.68-4.27,27.81-3.86,3.39,3.86,3.39,3.86-.46-6.35-1.76-6.38C219.73,451.32,199.58,458,199.58,458Z"/><polygon class="cls-4" points="210.74 469.48 214.4 535.72 229.12 531.08 223.67 465.58 210.74 469.48"/><polygon class="cls-20" points="224.31 473.32 217.82 481.84 223.11 479.98 224.99 532.38 229.12 531.08 224.31 473.32"/><path class="cls-4" d="M554.39,381.05l-21,5s-4.57,4.25-2.42,9.69a16.14,16.14,0,0,0,5.85,7.67l28.25-6.26s-.69-16.75-3.27-16.95A36.36,36.36,0,0,0,554.39,381.05Z"/><path class="cls-43" d="M532.93,386.6s26.67-4.27,27.8-3.87,3.39,3.87,3.39,3.87-.46-6.35-1.76-6.39C553.07,380,532.93,386.6,532.93,386.6Z"/><polygon class="cls-4" points="544.08 398.12 547.74 464.36 562.46 459.72 557.01 394.22 544.08 398.12"/><polygon class="cls-20" points="557.65 401.96 551.16 410.48 556.46 408.62 558.33 461.02 562.46 459.72 557.65 401.96"/><path class="cls-4" d="M939.06,298.57l-21,5.05s-4.57,4.24-2.42,9.68A16.14,16.14,0,0,0,921.5,321l28.25-6.25s-.69-16.75-3.27-17A36.36,36.36,0,0,0,939.06,298.57Z"/><path class="cls-44" d="M917.59,304.12s26.68-4.26,27.81-3.86,3.39,3.86,3.39,3.86-.46-6.35-1.76-6.38C937.74,297.49,917.59,304.12,917.59,304.12Z"/><polygon class="cls-4" points="928.75 315.64 932.41 381.89 947.13 377.25 941.68 311.74 928.75 315.64"/><polygon class="cls-20" points="942.32 319.48 935.83 328.01 941.12 326.14 943 378.55 947.13 377.25 942.32 319.48"/><path class="cls-4" d="M1243.7,236.49l-21,5s-4.57,4.24-2.42,9.68a16.14,16.14,0,0,0,5.85,7.67l28.25-6.25s-.69-16.75-3.27-17A36.36,36.36,0,0,0,1243.7,236.49Z"/><path class="cls-45" d="M1222.23,242s26.68-4.26,27.81-3.86,3.39,3.86,3.39,3.86-.46-6.35-1.76-6.38C1242.38,235.41,1222.23,242,1222.23,242Z"/><polygon class="cls-4" points="1233.39 253.56 1237.05 319.81 1251.77 315.17 1246.32 249.66 1233.39 253.56"/><polygon class="cls-20" points="1246.96 257.4 1240.47 265.93 1245.76 264.06 1247.64 316.47 1251.77 315.17 1246.96 257.4"/><path class="cls-46" d="M234.27,526.74,1399.84,263.87,1436,491S937.12,589.4,899,596.67s-503.07-7.27-503.07-7.27L160.71,554Z"/><path class="cls-47" d="M306,599.83l1137.91-225.7,30.48,228S1007,679.83,968.73,686.15,466,666.46,466,666.46L231.74,625.24Z"/></g></svg>